<?xml version="1.0" encoding="utf-8"?>
<!-- Generator: Adobe Illustrator 17.0.0, SVG Export Plug-In . SVG Version: 6.00 Build 0)  -->
<!DOCTYPE svg PUBLIC "-//W3C//DTD SVG 1.1//EN" "http://www.w3.org/Graphics/SVG/1.1/DTD/svg11.dtd">
<svg version="1.1" id="Camada_1" xmlns="http://www.w3.org/2000/svg" xmlns:xlink="http://www.w3.org/1999/xlink" x="0px" y="0px"
	 width="177.333px" height="62.833px" viewBox="0 0 177.333 62.833" enable-background="new 0 0 177.333 62.833"
	 xml:space="preserve">
<g>
	<path fill-rule="evenodd" clip-rule="evenodd" fill="#2C4471" d="M89.743,61.358h-0.927l-0.757-2.005h-3.032l-0.713,2.005h-0.931
		l2.741-7.148h0.868L89.743,61.358L89.743,61.358z M87.783,58.601l-1.121-3.045c-0.037-0.102-0.073-0.261-0.109-0.48h-0.021
		c-0.032,0.203-0.071,0.361-0.113,0.48l-1.112,3.045H87.783z"/>
	<path fill-rule="evenodd" clip-rule="evenodd" fill="#2C4471" d="M92.919,61.308c-0.192,0.105-0.447,0.158-0.763,0.158
		c-0.895,0-1.34-0.498-1.34-1.496v-3.02h-0.879v-0.698h0.879v-1.245l0.816-0.265v1.51h1.287v0.698h-1.287v2.877
		c0,0.342,0.059,0.586,0.176,0.732c0.115,0.147,0.308,0.22,0.579,0.22c0.205,0,0.382-0.057,0.532-0.17V61.308z"/>
	<path fill-rule="evenodd" clip-rule="evenodd" fill="#2C4471" d="M97.664,61.358h-0.819v-0.798h-0.017
		c-0.357,0.612-0.881,0.917-1.572,0.917c-0.508,0-0.907-0.135-1.194-0.403c-0.287-0.269-0.43-0.626-0.43-1.072
		c0-0.952,0.561-1.509,1.684-1.664l1.529-0.215c0-0.867-0.35-1.301-1.051-1.301c-0.615,0-1.169,0.21-1.664,0.628v-0.837
		c0.502-0.32,1.079-0.478,1.734-0.478c1.2,0,1.8,0.634,1.8,1.903V61.358L97.664,61.358z M96.845,58.775l-1.229,0.17
		c-0.38,0.052-0.666,0.147-0.857,0.282c-0.192,0.135-0.289,0.372-0.289,0.714c0,0.248,0.087,0.452,0.267,0.61
		c0.176,0.158,0.413,0.236,0.708,0.236c0.405,0,0.741-0.143,1.005-0.425c0.265-0.284,0.395-0.645,0.395-1.081V58.775z"/>
	<path fill-rule="evenodd" clip-rule="evenodd" fill="#2C4471" d="M102.682,61.123c-0.39,0.236-0.857,0.353-1.395,0.353
		c-0.729,0-1.316-0.236-1.763-0.709c-0.445-0.474-0.671-1.088-0.671-1.843c0-0.841,0.243-1.516,0.724-2.026
		c0.48-0.509,1.124-0.764,1.929-0.764c0.449,0,0.844,0.082,1.186,0.249v0.836c-0.379-0.265-0.784-0.398-1.216-0.398
		c-0.521,0-0.949,0.187-1.283,0.562c-0.333,0.372-0.502,0.864-0.502,1.471c0,0.6,0.158,1.07,0.471,1.416
		c0.315,0.346,0.736,0.518,1.265,0.518c0.445,0,0.864-0.147,1.254-0.444V61.123z"/>
	<path fill-rule="evenodd" clip-rule="evenodd" fill="#2C4471" d="M107.573,61.358h-0.818v-0.798h-0.018
		c-0.355,0.612-0.88,0.917-1.571,0.917c-0.509,0-0.907-0.135-1.195-0.403c-0.287-0.269-0.43-0.626-0.43-1.072
		c0-0.952,0.561-1.509,1.684-1.664l1.529-0.215c0-0.867-0.35-1.301-1.05-1.301c-0.615,0-1.17,0.21-1.665,0.628v-0.837
		c0.502-0.32,1.078-0.478,1.733-0.478c1.2,0,1.8,0.634,1.8,1.903V61.358L107.573,61.358z M106.754,58.775l-1.229,0.17
		c-0.38,0.052-0.665,0.147-0.857,0.282c-0.192,0.135-0.29,0.372-0.29,0.714c0,0.248,0.09,0.452,0.268,0.61
		c0.177,0.158,0.413,0.236,0.709,0.236c0.406,0,0.74-0.143,1.005-0.425c0.266-0.284,0.396-0.645,0.396-1.081V58.775z"/>
	<path fill-rule="evenodd" clip-rule="evenodd" fill="#2C4471" d="M113.471,61.358h-0.819V60.49h-0.017
		c-0.38,0.659-0.965,0.986-1.757,0.986c-0.639,0-1.153-0.228-1.535-0.685c-0.385-0.456-0.578-1.079-0.578-1.867
		c0-0.844,0.213-1.52,0.639-2.028c0.425-0.509,0.991-0.763,1.699-0.763c0.7,0,1.211,0.276,1.532,0.827h0.017v-3.159h0.819V61.358
		L113.471,61.358z M112.652,59.05v-0.754c0-0.411-0.135-0.76-0.407-1.045c-0.273-0.287-0.617-0.43-1.037-0.43
		c-0.498,0-0.89,0.182-1.177,0.548c-0.286,0.366-0.429,0.872-0.429,1.516c0,0.589,0.138,1.052,0.411,1.393
		c0.274,0.34,0.643,0.51,1.105,0.51c0.456,0,0.825-0.165,1.109-0.492C112.511,59.967,112.652,59.55,112.652,59.05z"/>
	<path fill-rule="evenodd" clip-rule="evenodd" fill="#2C4471" d="M117.259,61.476c-0.754,0-1.357-0.237-1.807-0.714
		c-0.45-0.476-0.677-1.109-0.677-1.897c0-0.857,0.236-1.527,0.704-2.01c0.469-0.482,1.103-0.722,1.9-0.722
		c0.761,0,1.354,0.232,1.781,0.702c0.427,0.469,0.64,1.119,0.64,1.949c0,0.815-0.23,1.466-0.689,1.957
		C118.651,61.231,118.033,61.476,117.259,61.476L117.259,61.476z M117.318,56.821c-0.524,0-0.939,0.179-1.246,0.536
		c-0.306,0.357-0.46,0.849-0.46,1.478c0,0.605,0.156,1.081,0.465,1.429c0.31,0.35,0.723,0.525,1.24,0.525
		c0.529,0,0.937-0.171,1.22-0.514c0.285-0.341,0.426-0.828,0.426-1.46c0-0.637-0.142-1.13-0.426-1.475
		C118.254,56.993,117.847,56.821,117.318,56.821z"/>
	<path fill-rule="evenodd" clip-rule="evenodd" fill="#2C4471" d="M124.015,61.358V54.21h1.975c2.518,0,3.779,1.161,3.779,3.485
		c0,1.102-0.351,1.989-1.05,2.658c-0.7,0.668-1.636,1.005-2.809,1.005H124.015L124.015,61.358z M124.852,54.967v5.633h1.067
		c0.938,0,1.665-0.251,2.188-0.753c0.521-0.502,0.782-1.213,0.782-2.134c0-1.831-0.973-2.746-2.922-2.746H124.852z"/>
	<path fill-rule="evenodd" clip-rule="evenodd" fill="#2C4471" d="M131.48,54.956c-0.145,0-0.271-0.05-0.372-0.15
		c-0.104-0.098-0.156-0.225-0.156-0.377c0-0.153,0.052-0.281,0.156-0.381c0.101-0.102,0.227-0.154,0.372-0.154
		c0.15,0,0.277,0.052,0.382,0.154c0.104,0.1,0.157,0.228,0.157,0.381c0,0.145-0.053,0.271-0.157,0.372
		C131.758,54.905,131.63,54.956,131.48,54.956L131.48,54.956z M131.881,61.358h-0.819v-5.105h0.819V61.358z"/>
	<path fill-rule="evenodd" clip-rule="evenodd" fill="#2C4471" d="M133.226,61.173v-0.877c0.444,0.327,0.938,0.492,1.471,0.492
		c0.717,0,1.077-0.24,1.077-0.718c0-0.136-0.03-0.252-0.092-0.345c-0.064-0.096-0.144-0.18-0.25-0.252
		c-0.104-0.073-0.228-0.14-0.37-0.198c-0.14-0.057-0.292-0.118-0.455-0.181c-0.227-0.091-0.424-0.181-0.597-0.273
		c-0.17-0.09-0.313-0.194-0.429-0.308c-0.115-0.115-0.201-0.244-0.26-0.392c-0.057-0.145-0.086-0.317-0.086-0.512
		c0-0.241,0.054-0.451,0.164-0.637c0.11-0.184,0.256-0.339,0.439-0.463c0.183-0.124,0.39-0.22,0.625-0.282
		c0.234-0.064,0.477-0.095,0.726-0.095c0.442,0,0.837,0.077,1.184,0.229v0.828c-0.374-0.247-0.805-0.37-1.294-0.37
		c-0.153,0-0.29,0.017-0.415,0.053c-0.122,0.034-0.229,0.084-0.316,0.147c-0.087,0.062-0.156,0.139-0.205,0.227
		c-0.048,0.088-0.072,0.185-0.072,0.292c0,0.133,0.024,0.245,0.072,0.334c0.049,0.09,0.118,0.17,0.212,0.24
		c0.093,0.07,0.208,0.133,0.34,0.189c0.132,0.055,0.284,0.117,0.454,0.183c0.224,0.087,0.43,0.176,0.607,0.268
		c0.18,0.091,0.333,0.194,0.46,0.31c0.127,0.115,0.223,0.247,0.291,0.395c0.068,0.15,0.102,0.327,0.102,0.534
		c0,0.252-0.057,0.472-0.167,0.658c-0.113,0.185-0.261,0.34-0.446,0.463c-0.187,0.124-0.402,0.215-0.644,0.275
		c-0.243,0.06-0.497,0.089-0.764,0.089C134.066,61.476,133.611,61.377,133.226,61.173z"/>
	<path fill-rule="evenodd" clip-rule="evenodd" fill="#2C4471" d="M140.236,61.308c-0.192,0.105-0.449,0.158-0.763,0.158
		c-0.895,0-1.34-0.498-1.34-1.496v-3.02h-0.879v-0.698h0.879v-1.245l0.816-0.265v1.51h1.287v0.698h-1.287v2.877
		c0,0.342,0.058,0.586,0.175,0.732c0.116,0.147,0.31,0.22,0.58,0.22c0.205,0,0.383-0.057,0.533-0.17V61.308z"/>
	<path fill-rule="evenodd" clip-rule="evenodd" fill="#2C4471" d="M143.987,57.08c-0.143-0.11-0.347-0.164-0.616-0.164
		c-0.351,0-0.642,0.164-0.877,0.494c-0.233,0.328-0.35,0.777-0.35,1.346v2.601h-0.818v-5.105h0.818v1.052h0.02
		c0.115-0.359,0.293-0.639,0.532-0.841c0.241-0.201,0.508-0.301,0.803-0.301c0.212,0,0.375,0.023,0.487,0.07V57.08z"/>
	<path fill-rule="evenodd" clip-rule="evenodd" fill="#2C4471" d="M145.293,54.956c-0.145,0-0.272-0.05-0.372-0.15
		c-0.104-0.098-0.156-0.225-0.156-0.377c0-0.153,0.052-0.281,0.156-0.381c0.1-0.102,0.227-0.154,0.372-0.154
		c0.15,0,0.278,0.052,0.383,0.154c0.104,0.1,0.156,0.228,0.156,0.381c0,0.145-0.052,0.271-0.156,0.372
		C145.571,54.905,145.443,54.956,145.293,54.956L145.293,54.956z M145.693,61.358h-0.817v-5.105h0.817V61.358z"/>
	<path fill-rule="evenodd" clip-rule="evenodd" fill="#2C4471" d="M148.187,60.619h-0.021v0.739h-0.818v-7.557h0.818v3.348h0.021
		c0.4-0.677,0.99-1.016,1.764-1.016c0.653,0,1.167,0.229,1.536,0.686c0.371,0.456,0.556,1.069,0.556,1.835
		c0,0.855-0.209,1.539-0.622,2.052c-0.415,0.513-0.984,0.769-1.705,0.769C149.041,61.476,148.532,61.191,148.187,60.619
		L148.187,60.619z M148.165,58.56v0.713c0,0.422,0.136,0.781,0.411,1.075c0.275,0.294,0.621,0.44,1.044,0.44
		c0.495,0,0.883-0.189,1.164-0.568c0.28-0.379,0.42-0.905,0.42-1.58c0-0.569-0.131-1.013-0.395-1.336
		c-0.262-0.322-0.617-0.484-1.064-0.484c-0.476,0-0.857,0.165-1.147,0.496C148.309,57.649,148.165,58.062,148.165,58.56z"/>
	<path fill-rule="evenodd" clip-rule="evenodd" fill="#2C4471" d="M157.476,61.358h-0.816v-0.809h-0.021
		c-0.338,0.62-0.864,0.927-1.576,0.927c-1.217,0-1.824-0.723-1.824-2.172v-3.052h0.812v2.922c0,1.077,0.413,1.614,1.236,1.614
		c0.398,0,0.726-0.147,0.986-0.44c0.256-0.294,0.386-0.679,0.386-1.155v-2.94h0.816V61.358z"/>
	<path fill-rule="evenodd" clip-rule="evenodd" fill="#2C4471" d="M159.545,54.956c-0.144,0-0.27-0.05-0.372-0.15
		c-0.104-0.098-0.155-0.225-0.155-0.377c0-0.153,0.051-0.281,0.155-0.381c0.102-0.102,0.228-0.154,0.372-0.154
		c0.15,0,0.277,0.052,0.384,0.154c0.103,0.1,0.156,0.228,0.156,0.381c0,0.145-0.053,0.271-0.156,0.372
		C159.822,54.905,159.695,54.956,159.545,54.956L159.545,54.956z M159.945,61.358h-0.818v-5.105h0.818V61.358z"/>
	<path fill-rule="evenodd" clip-rule="evenodd" fill="#2C4471" d="M165.956,61.358h-0.818V60.49h-0.019
		c-0.379,0.659-0.964,0.986-1.755,0.986c-0.641,0-1.154-0.228-1.537-0.685c-0.384-0.456-0.577-1.079-0.577-1.867
		c0-0.844,0.212-1.52,0.638-2.028c0.425-0.509,0.992-0.763,1.699-0.763c0.702,0,1.213,0.276,1.531,0.827h0.019v-3.159h0.818V61.358
		L165.956,61.358z M165.138,59.05v-0.754c0-0.411-0.136-0.76-0.407-1.045c-0.273-0.287-0.619-0.43-1.037-0.43
		c-0.498,0-0.892,0.182-1.177,0.548c-0.287,0.366-0.429,0.872-0.429,1.516c0,0.589,0.138,1.052,0.412,1.393
		c0.274,0.34,0.642,0.51,1.104,0.51c0.456,0,0.824-0.165,1.109-0.492C164.997,59.967,165.138,59.55,165.138,59.05z"/>
	<path fill-rule="evenodd" clip-rule="evenodd" fill="#2C4471" d="M169.743,61.476c-0.754,0-1.356-0.237-1.807-0.714
		c-0.449-0.476-0.675-1.109-0.675-1.897c0-0.857,0.235-1.527,0.702-2.01c0.47-0.482,1.103-0.722,1.9-0.722
		c0.762,0,1.356,0.232,1.782,0.702c0.427,0.469,0.64,1.119,0.64,1.949c0,0.815-0.229,1.466-0.689,1.957
		C171.135,61.231,170.518,61.476,169.743,61.476L169.743,61.476z M169.804,56.821c-0.524,0-0.939,0.179-1.246,0.536
		c-0.306,0.357-0.458,0.849-0.458,1.478c0,0.605,0.154,1.081,0.463,1.429c0.31,0.35,0.724,0.525,1.241,0.525
		c0.529,0,0.936-0.171,1.22-0.514c0.283-0.341,0.425-0.828,0.425-1.46c0-0.637-0.142-1.13-0.425-1.475
		C170.74,56.993,170.332,56.821,169.804,56.821z"/>
	<path fill-rule="evenodd" clip-rule="evenodd" fill="#2C4471" d="M176.255,57.08c-0.143-0.11-0.348-0.164-0.616-0.164
		c-0.351,0-0.643,0.164-0.878,0.494c-0.232,0.328-0.35,0.777-0.35,1.346v2.601h-0.819v-5.105h0.819v1.052h0.02
		c0.115-0.359,0.293-0.639,0.532-0.841c0.24-0.201,0.507-0.301,0.803-0.301c0.212,0,0.375,0.023,0.488,0.07V57.08z"/>
	<path fill-rule="evenodd" clip-rule="evenodd" fill="#2C4471" d="M60.179,39.629c-1.324,0-2.61-0.124-3.853-0.37
		c-1.242-0.246-2.446-0.617-3.607-1.111c-0.992-0.422-1.933-0.913-2.818-1.473c-0.456-0.288-0.899-0.595-1.326-0.921v25.037v0.704
		h-0.704h-6.119h-0.705v-0.704V20.569c0-1.297,0.127-2.566,0.382-3.805c0.252-1.234,0.632-2.431,1.137-3.591
		c0.503-1.149,1.097-2.23,1.781-3.243c0.69-1.018,1.462-1.954,2.315-2.807l0.001,0.001c0.863-0.864,1.801-1.638,2.806-2.319
		l0.002,0.001c1.011-0.683,2.091-1.276,3.242-1.778c1.156-0.505,2.36-0.884,3.61-1.137c1.252-0.254,2.538-0.382,3.856-0.382
		c1.297,0,2.566,0.128,3.804,0.38c1.236,0.254,2.434,0.634,3.592,1.139c1.157,0.505,2.239,1.098,3.243,1.777v0.002
		c1.017,0.689,1.954,1.462,2.808,2.315c0.854,0.853,1.626,1.789,2.314,2.807c0.685,1.012,1.279,2.094,1.781,3.243
		c0.505,1.159,0.884,2.357,1.137,3.591c0.254,1.24,0.382,2.508,0.382,3.805c0,1.318-0.128,2.604-0.382,3.856
		c-0.253,1.248-0.633,2.454-1.137,3.611c-0.505,1.157-1.097,2.239-1.777,3.243H75.94c-0.684,1.013-1.456,1.948-2.314,2.806
		l-0.002,0.004c-0.86,0.858-1.798,1.628-2.808,2.308c-1.011,0.678-2.094,1.262-3.245,1.752c-1.164,0.496-2.362,0.866-3.59,1.111
		C62.75,39.505,61.481,39.629,60.179,39.629L60.179,39.629z M60.179,8.822c-1.616,0-3.14,0.301-4.565,0.904
		c-0.712,0.299-1.377,0.66-1.993,1.081c-0.612,0.417-1.175,0.894-1.686,1.426c-0.514,0.537-0.977,1.121-1.385,1.745
		c-0.41,0.631-0.768,1.306-1.07,2.026c-0.299,0.709-0.525,1.445-0.677,2.21c-0.15,0.76-0.227,1.547-0.227,2.356
		c0,0.81,0.077,1.595,0.227,2.356c0.152,0.764,0.378,1.501,0.677,2.209c0.302,0.721,0.66,1.392,1.067,2.013
		c0.406,0.617,0.867,1.189,1.382,1.716c0.514,0.525,1.077,0.993,1.687,1.403c0.615,0.415,1.283,0.773,1.998,1.076
		c0.708,0.299,1.445,0.524,2.209,0.676c0.761,0.151,1.546,0.227,2.356,0.227c0.808,0,1.588-0.076,2.344-0.227
		c0.757-0.151,1.486-0.377,2.183-0.676c0.707-0.303,1.369-0.662,1.983-1.076c0.613-0.411,1.182-0.88,1.708-1.406v-0.003
		c0.529-0.53,1-1.103,1.409-1.716c0.415-0.621,0.774-1.291,1.075-2.008c0.299-0.708,0.525-1.445,0.677-2.21
		c0.151-0.761,0.227-1.546,0.227-2.355c0-0.809-0.075-1.596-0.227-2.355c-0.151-0.765-0.378-1.502-0.677-2.21
		c-0.301-0.716-0.661-1.389-1.078-2.019c-0.415-0.628-0.884-1.211-1.408-1.746c-0.525-0.535-1.095-1.013-1.71-1.432
		c-0.614-0.418-1.274-0.779-1.978-1.081c-0.698-0.3-1.426-0.526-2.183-0.677C61.769,8.899,60.987,8.822,60.179,8.822z"/>
	<path fill-rule="evenodd" clip-rule="evenodd" fill="#2C4471" d="M8.855,23.291c0.082,0.448,0.184,0.884,0.308,1.306
		c0.195,0.671,0.445,1.322,0.751,1.953c0.305,0.635,0.647,1.22,1.022,1.75c0.375,0.529,0.794,1.019,1.253,1.467
		c0.455,0.445,0.945,0.847,1.47,1.203c0.523,0.355,1.079,0.669,1.672,0.937c0.581,0.263,1.184,0.462,1.804,0.593
		c0.618,0.131,1.261,0.197,1.926,0.197c1.034,0,2.017-0.122,2.942-0.366c0.929-0.246,1.811-0.612,2.643-1.101
		c0.839-0.491,1.598-1.069,2.276-1.73c0.675-0.658,1.272-1.403,1.787-2.233l0.377-0.606l0.6,0.386l4.981,3.2l0.586,0.377
		l-0.372,0.589c-0.836,1.329-1.81,2.527-2.917,3.591c-1.109,1.066-2.351,1.999-3.727,2.798c-1.382,0.8-2.841,1.404-4.376,1.806
		c-1.533,0.402-3.134,0.602-4.8,0.602c-1.155,0-2.284-0.112-3.386-0.336c-1.094-0.222-2.158-0.557-3.189-1.005
		c-1.026-0.444-1.993-0.973-2.897-1.581H9.59c-0.902-0.608-1.751-1.303-2.545-2.083c-0.791-0.779-1.51-1.627-2.154-2.543
		c-0.648-0.919-1.222-1.905-1.724-2.956c-0.503-1.053-0.906-2.158-1.208-3.308c-0.302-1.146-0.503-2.332-0.601-3.557l-0.002-0.054
		c0-0.144-0.002-0.255-0.006-0.344c-0.005-0.087-0.013-0.216-0.026-0.381c-0.026-0.307-0.039-0.612-0.039-0.912
		c0-0.779,0.042-1.542,0.129-2.285c0.087-0.738,0.216-1.452,0.387-2.14c0.222-1.034,0.524-2.033,0.902-2.994
		c0.38-0.962,0.843-1.896,1.386-2.799c0.535-0.888,1.129-1.723,1.78-2.504c0.651-0.78,1.35-1.496,2.098-2.147
		c0.756-0.657,1.561-1.24,2.409-1.751h0.003c0.85-0.512,1.754-0.954,2.703-1.325c0.953-0.371,1.93-0.649,2.927-0.836
		c1.004-0.187,2.022-0.28,3.053-0.28c1.032,0,2.05,0.093,3.052,0.28c0.999,0.187,1.976,0.465,2.927,0.836
		c0.952,0.371,1.853,0.812,2.705,1.325c0.854,0.514,1.659,1.098,2.413,1.751c0.747,0.651,1.448,1.366,2.098,2.147
		c0.649,0.781,1.244,1.617,1.778,2.504c1.081,1.795,1.845,3.724,2.288,5.789c0.513,2.057,0.739,4.639,0.32,6.769h-0.579H8.855
		L8.855,23.291z M28.512,15.978c-0.327-0.786-0.721-1.515-1.18-2.191c-0.632-0.928-1.391-1.752-2.272-2.465
		c-0.872-0.707-1.808-1.238-2.806-1.59c-0.996-0.352-2.06-0.528-3.191-0.528c-1.131,0-2.194,0.176-3.191,0.528
		c-0.998,0.352-1.934,0.883-2.805,1.59c-0.882,0.713-1.641,1.537-2.273,2.465c-0.459,0.676-0.852,1.405-1.179,2.191H28.512z"/>
	<path fill-rule="evenodd" clip-rule="evenodd" fill="#2C4471" d="M83.401,20.569c0-1.297,0.126-2.565,0.38-3.805
		c0.254-1.234,0.633-2.431,1.138-3.59c0.502-1.15,1.095-2.232,1.78-3.244c0.689-1.018,1.462-1.954,2.315-2.807
		c0.853-0.854,1.79-1.626,2.808-2.315c1.011-0.684,2.093-1.277,3.243-1.78c1.157-0.505,2.362-0.884,3.611-1.137
		c1.252-0.254,2.537-0.382,3.856-0.382h0.028h0.705v0.704v5.906v0.704h-0.705h-0.028c-1.618,0-3.14,0.301-4.566,0.904
		c-0.71,0.3-1.376,0.66-1.993,1.081c-0.613,0.418-1.176,0.894-1.686,1.428c-0.515,0.537-0.977,1.119-1.384,1.744
		c-0.412,0.631-0.77,1.306-1.072,2.026c-0.299,0.707-0.524,1.445-0.676,2.21c-0.151,0.76-0.228,1.547-0.228,2.356v0.051h-0.003
		c0.003,0.895,0.003,1.776,0.001,2.671l-0.001,1.379h0.003v14.716v0.704h-0.703h-6.119h-0.704v-0.704V20.569z"/>
	<path fill-rule="evenodd" clip-rule="evenodd" fill="#2C4471" d="M122.543,39.629c-1.325,0-2.609-0.123-3.852-0.369
		c-1.241-0.247-2.447-0.617-3.609-1.112c-1.151-0.49-2.235-1.074-3.245-1.752c-1.012-0.678-1.95-1.449-2.81-2.31l-0.002,0.001
		c-0.853-0.853-1.625-1.789-2.313-2.808c-0.685-1.011-1.279-2.093-1.78-3.243c-0.505-1.157-0.884-2.363-1.139-3.611
		c-0.254-1.252-0.381-2.538-0.381-3.856c0-1.297,0.127-2.565,0.381-3.805c0.253-1.234,0.633-2.433,1.139-3.59
		c0.501-1.15,1.095-2.232,1.78-3.244c0.688-1.018,1.461-1.954,2.313-2.807c0.854-0.854,1.79-1.626,2.808-2.315
		c1.011-0.684,2.093-1.277,3.244-1.78c1.156-0.505,2.362-0.884,3.61-1.137c1.252-0.254,2.538-0.382,3.856-0.382
		c1.296,0,2.566,0.128,3.805,0.38c1.235,0.254,2.433,0.634,3.59,1.139c1.15,0.503,2.233,1.096,3.244,1.78
		c1.019,0.689,1.956,1.462,2.808,2.315c0.853,0.853,1.625,1.789,2.315,2.807c0.684,1.012,1.278,2.094,1.78,3.244
		c0.505,1.159,0.884,2.356,1.137,3.59c0.254,1.24,0.381,2.508,0.381,3.805c0,1.318-0.127,2.604-0.381,3.856
		c-0.253,1.248-0.633,2.454-1.137,3.611c-0.502,1.15-1.096,2.232-1.78,3.243c-0.689,1.019-1.462,1.956-2.315,2.808l-0.001-0.001
		c-0.861,0.861-1.798,1.632-2.809,2.31c-1.011,0.678-2.094,1.262-3.247,1.752c-1.163,0.496-2.36,0.867-3.587,1.112
		C125.114,39.506,123.846,39.629,122.543,39.629L122.543,39.629z M122.543,8.822c-1.617,0-3.14,0.301-4.566,0.904
		c-0.711,0.3-1.376,0.66-1.992,1.081c-0.613,0.418-1.176,0.894-1.686,1.428c-0.515,0.537-0.978,1.121-1.386,1.745
		c-0.41,0.629-0.767,1.305-1.071,2.024c-0.297,0.707-0.523,1.445-0.675,2.21c-0.15,0.76-0.227,1.547-0.227,2.356
		c0,1.618,0.302,3.14,0.902,4.565c0.304,0.721,0.66,1.392,1.069,2.013c0.405,0.617,0.867,1.189,1.383,1.716
		c0.512,0.525,1.076,0.992,1.686,1.403c0.615,0.415,1.282,0.773,1.998,1.076c0.709,0.299,1.446,0.524,2.21,0.676
		c0.76,0.151,1.547,0.227,2.356,0.227c1.614,0,3.125-0.301,4.528-0.902c0.707-0.303,1.37-0.662,1.983-1.076
		c0.606-0.407,1.176-0.877,1.708-1.409h0.003c0.523-0.522,0.992-1.095,1.403-1.713l0.003-0.002c0.415-0.621,0.774-1.291,1.076-2.008
		c0.298-0.708,0.523-1.445,0.674-2.21c0.152-0.759,0.228-1.546,0.228-2.355c0-1.618-0.301-3.14-0.902-4.566
		c-0.302-0.716-0.662-1.389-1.079-2.019c-0.415-0.628-0.885-1.211-1.408-1.744c-0.525-0.536-1.095-1.014-1.71-1.434
		c-0.615-0.42-1.274-0.779-1.978-1.081c-0.698-0.3-1.426-0.526-2.183-0.677C124.132,8.898,123.351,8.822,122.543,8.822z"/>
	<path fill-rule="evenodd" clip-rule="evenodd" fill="#2C4471" d="M161.218,16.861c0.66,0.146,1.353,0.308,2.077,0.483
		c0.702,0.17,1.488,0.367,2.356,0.591c0.862,0.221,1.701,0.495,2.513,0.818c0.819,0.326,1.616,0.705,2.385,1.132
		c0.791,0.438,1.521,0.949,2.19,1.532c0.674,0.584,1.286,1.241,1.836,1.966l-0.001,0.002c0.574,0.757,1.004,1.616,1.289,2.571
		c0.281,0.945,0.42,1.983,0.42,3.115c0,1.771-0.361,3.36-1.084,4.761c-0.723,1.399-1.802,2.601-3.238,3.605
		c-1.412,0.987-3.088,1.726-5.023,2.214c-1.913,0.483-4.085,0.725-6.513,0.725c-1.758,0-3.426-0.184-4.997-0.552
		c-0.787-0.185-1.539-0.41-2.253-0.674c-0.716-0.266-1.401-0.574-2.047-0.922c-0.642-0.345-1.248-0.719-1.814-1.118
		c-0.563-0.398-1.098-0.832-1.601-1.297c-0.51-0.471-0.957-0.973-1.339-1.502c-0.384-0.53-0.705-1.094-0.964-1.689l-0.299-0.687
		l0.709-0.252l5.407-1.921l0.489-0.174l0.312,0.422c0.285,0.387,0.68,0.754,1.184,1.101c0.528,0.362,1.171,0.702,1.932,1.013
		c0.761,0.313,1.579,0.549,2.453,0.706c0.875,0.156,1.817,0.235,2.828,0.235c0.708,0,1.54-0.046,2.496-0.136
		c0.47-0.045,0.932-0.118,1.382-0.218c0.451-0.1,0.895-0.228,1.329-0.384c0.418-0.15,0.807-0.333,1.166-0.548
		c1.943-1.159,2.527-3.54,0.696-5.003h-0.002c-0.261-0.21-0.602-0.423-1.017-0.635c-0.434-0.222-0.957-0.449-1.565-0.678
		c-0.601-0.228-1.337-0.457-2.203-0.69c-0.879-0.236-1.878-0.471-2.995-0.704h-0.002c-0.794-0.168-1.585-0.344-2.371-0.527
		c-0.785-0.183-1.581-0.378-2.384-0.581h-0.003c-0.826-0.209-1.609-0.467-2.351-0.769c-0.744-0.304-1.448-0.656-2.108-1.054
		c-0.668-0.405-1.28-0.864-1.831-1.378c-0.552-0.512-1.043-1.081-1.477-1.708c-0.45-0.649-0.788-1.383-1.01-2.198
		c-0.218-0.802-0.327-1.685-0.327-2.648c0-1.621,0.32-3.098,0.961-4.43c0.638-1.329,1.594-2.501,2.864-3.518
		c1.258-1.006,2.752-1.762,4.475-2.26c1.705-0.495,3.632-0.742,5.78-0.742c0.819,0,1.637,0.044,2.449,0.13
		c0.796,0.085,1.584,0.215,2.362,0.387c0.789,0.175,1.531,0.387,2.228,0.635l-0.001,0.001c0.712,0.253,1.39,0.548,2.035,0.884h0.002
		c0.642,0.332,1.246,0.699,1.813,1.098c0.565,0.397,1.094,0.829,1.585,1.293c0.498,0.472,0.93,0.977,1.295,1.509
		c0.369,0.536,0.671,1.102,0.902,1.696l0.265,0.675l-0.685,0.245l-5.409,1.92l-0.538,0.192l-0.297-0.495
		c-0.489-0.814-1.385-1.489-2.688-2.024c-0.677-0.277-1.405-0.487-2.178-0.625c-0.774-0.139-1.607-0.209-2.5-0.209
		c-2.291,0-4.058,0.37-5.295,1.108c-1.122,0.669-1.684,1.513-1.684,2.528c0,1.701,1.726,2.13,3.101,2.568
		c1.459,0.465,3.009,0.788,4.511,1.081L161.218,16.861z"/>
	<path fill-rule="evenodd" clip-rule="evenodd" fill="#DC9229" d="M90.934,20.155c0,0-0.577-18.81,12.383-18.648l0.008,7.393
		C103.325,8.899,92.427,8.071,90.934,20.155z"/>
</g>
</svg>
